<svg width="434" height="434" viewBox="0 0 434 434" fill="none" xmlns="http://www.w3.org/2000/svg">
<circle cx="217" cy="217" r="217" fill="#003320"/>
<path fill-rule="evenodd" clip-rule="evenodd" d="M40.3891 233.698C32.2459 235.927 26.007 242.692 23.6991 251.795C22.7685 255.465 22.7667 262.976 23.6953 266.606C25.9342 275.357 32.6959 281.94 41.1629 283.612C45.0348 284.376 52.9396 283.96 56.2949 282.815C57.7144 282.331 60.1429 281.071 61.6915 280.014L64.5071 278.094L64.6329 266.985L64.7591 255.876H55.1302H45.5018V260.176V264.476H50.4291H55.3564V268.7C55.3564 272.835 55.3296 272.937 54.0659 273.556C53.3564 273.905 50.7346 274.286 48.2404 274.404C44.169 274.596 43.4496 274.499 41.1986 273.449C38.1413 272.024 36.1394 270.055 34.657 267.015C33.6621 264.975 33.5354 264.067 33.5354 258.982C33.5354 253.814 33.6551 252.988 34.7475 250.617C35.4144 249.17 36.679 247.254 37.558 246.359C42.1887 241.644 50.9317 241.277 56.4507 245.567L58.5441 247.194L61.4099 243.795L64.2758 240.396L62.8069 238.853C60.9149 236.865 56.7276 234.602 53.225 233.673C49.8059 232.766 43.7481 232.777 40.3891 233.698ZM73.6578 258.504V283.588H78.5851H83.5125V274.488V265.388L86.68 265.529L89.8476 265.671L94.7275 274.63L99.6074 283.588H104.934C107.864 283.588 110.261 283.509 110.261 283.411C110.261 283.314 107.833 279.067 104.865 273.975C101.897 268.882 99.469 264.57 99.4685 264.394C99.468 264.217 100.246 263.811 101.198 263.491C102.149 263.171 103.914 261.906 105.119 260.679C107.971 257.775 109.064 254.614 109.019 249.397C108.962 242.776 105.87 237.612 100.579 235.304C97.247 233.849 93.3333 233.427 83.1605 233.423L73.6578 233.419V258.504ZM118.238 258.504V283.588H133.724H149.21V278.81V274.032H138.886H128.562V268.28V262.528L137.361 262.587L146.16 262.646V258.186V253.726L137.361 253.596L128.562 253.466V248.22V242.975H138.651H148.741V238.197V233.419H133.489H118.238V258.504ZM158.126 258.504V283.588H173.377H188.628V278.81V274.032H178.411H168.192L168.204 268.418L168.215 262.804L176.897 262.717L185.578 262.629L185.712 258.058L185.847 253.487L177.031 253.483L168.215 253.481L168.186 248.228L168.157 242.975H178.392H188.628V238.197V233.419H173.377H158.126V258.504ZM198.014 258.504V283.588H202.941H207.868L207.88 267.224L207.891 250.859L218.518 267.224L229.144 283.588H233.992H238.84V258.504V233.419H234.147H229.455L229.444 250.262L229.432 267.104L218.533 250.275L207.634 233.446L202.824 233.432L198.014 233.419V258.504ZM250.103 258.504V283.588H260.809C272.318 283.588 275.84 283.176 279.178 281.438C287.08 277.324 289.137 266.449 283.163 260.367C282.008 259.191 280.446 258.113 279.667 257.954C278.214 257.658 277.704 256.831 278.975 256.831C280.197 256.831 283.635 252.903 284.251 250.803C285.102 247.906 284.957 243.541 283.937 241.303C282.152 237.385 278.284 234.864 272.625 233.93C270.948 233.653 265.196 233.425 259.84 233.423L250.103 233.419V258.504ZM289.926 235.674C290.669 236.93 294.578 243.692 298.612 250.699L305.945 263.44V273.514V283.588H310.873H315.8V273.381V263.174L324.012 248.544C328.529 240.498 332.224 233.797 332.224 233.652C332.224 233.507 329.757 233.449 326.743 233.523L321.261 233.658L316.536 242.506C313.938 247.372 311.599 251.713 311.34 252.152C310.958 252.798 309.839 251.115 305.458 243.304L300.049 233.658L294.311 233.524L288.574 233.389L289.926 235.674ZM337.386 238.184V242.949L343.977 243.082L350.567 243.214L350.537 263.417L350.507 283.621L355.464 283.485L360.422 283.349L360.392 263.162L360.361 242.975H367.176H373.989V238.197V233.419H355.688H337.386V238.184ZM381.028 258.504V283.588H396.514H412V278.81V274.032H401.559H391.118L391.203 268.418L391.288 262.804L400.002 262.674L408.715 262.544V258.015V253.487H399.916H391.118V248.231V242.975H401.324H411.531V238.197V233.419H396.28H381.028V258.504ZM83.5115 249.545L83.5106 256.593L89.0493 256.354C95.1944 256.088 96.5234 255.572 97.8669 252.926C98.3995 251.878 98.5689 250.641 98.4239 248.859C98.0391 244.131 95.1672 242.497 87.2436 242.497H83.5125L83.5115 249.545ZM259.957 248.231V253.965H263.648C271.819 253.965 274.974 252.317 274.974 248.049C274.974 245.447 273.683 243.664 271.316 242.994C270.359 242.724 267.413 242.502 264.767 242.5L259.957 242.497V248.231ZM259.957 268.06V274.032H265.838C274.28 274.032 276.382 272.876 276.382 268.229C276.382 265.46 274.803 263.305 272.245 262.582C271.294 262.313 268.14 262.092 265.236 262.09L259.957 262.087V268.06Z" fill="#F5F4E8"/>
<path fill-rule="evenodd" clip-rule="evenodd" d="M158.712 39.4705C158.712 40.239 153.752 45.3768 149.723 48.7812C142.678 54.7348 130.33 63.8325 118.613 71.7029C99.4487 84.5744 88.986 93.188 81.0449 102.631C74.3382 110.606 68.7452 120.183 66.1173 128.19C61.9116 141.004 61.9646 156.378 66.2576 168.928C69.6007 178.701 77.6665 190.658 86.3939 198.781L88.7765 200.999L88.606 192.587C88.3163 178.309 89.619 163.527 92.1864 151.97L93.4801 146.144L92.1095 142.289C91.3557 140.169 89.1894 134.574 87.2956 129.857C85.4014 125.14 83.9144 121.217 83.9903 121.138C84.2103 120.912 89.2782 126.337 91.9443 129.653C93.2815 131.316 94.8234 133.597 95.3709 134.722C95.918 135.846 96.4842 136.764 96.6288 136.761C96.7735 136.758 97.5082 135.097 98.2615 133.068C104.288 116.839 116.324 99.0243 128.454 88.3795C134.807 82.8047 144.816 75.3012 145.9 75.3012C146.112 75.3012 144.073 78.0352 141.371 81.3763C132.395 92.4714 121.194 108.48 117.165 115.971C115.339 119.365 111.623 128.091 109.982 132.835C109.134 135.286 109.335 136.02 110.477 134.646C111.535 133.374 119.95 128.194 124.437 126.053C130.438 123.19 138.109 121.493 132.784 124.207C130.568 125.337 121.452 132.292 116.361 136.737C106.394 145.439 102.596 153.327 100.058 170.596C98.5331 180.97 97.9287 190.014 98.2171 198.128C98.471 205.265 99.3785 213.004 99.9609 213C100.111 212.999 101.78 212.397 103.669 211.662L107.105 210.326L107.369 201.163C107.514 196.123 107.962 188.952 108.364 185.228C109.178 177.701 111.247 164.509 111.979 162.18C112.512 160.486 114.782 158.636 129.583 147.832C134.708 144.091 139.234 140.753 139.641 140.414C140.084 140.044 140.918 137.183 141.725 133.262C142.464 129.667 143.988 123.039 145.112 118.533L147.154 110.34L146.029 109.006C143.955 106.545 143.39 102.728 144.652 99.7119C147.58 92.7173 156.895 91.8348 161.338 98.1305C162.586 99.8996 162.77 100.572 162.77 103.37C162.77 105.981 162.555 106.893 161.619 108.256C159.897 110.766 157.668 112.074 154.543 112.41L151.811 112.704L150.043 120.09C149.07 124.152 147.562 130.892 146.69 135.068L145.107 142.66L142.045 144.835C139.629 146.552 124.005 158.064 118.226 162.386C117.301 163.078 116.973 164.13 116.184 168.928C114.566 178.769 113.362 190.509 113.04 199.598L112.729 208.351L113.881 208.011C114.514 207.825 116.231 207.248 117.695 206.729L120.359 205.787L120.911 198.554C121.391 192.264 123.357 177.18 124.103 174.05C124.244 173.46 124.696 172.978 125.107 172.978C125.518 172.978 129.005 170.554 132.855 167.591C136.706 164.628 142.971 159.982 146.778 157.266C150.585 154.55 153.853 152.202 154.04 152.046C154.226 151.891 155.04 148.909 155.848 145.42L157.316 139.076L156.045 138.078C154.39 136.779 153.008 133.693 152.994 131.269C152.97 126.794 156.918 122.55 161.517 122.109C164.753 121.799 166.041 122.196 168.244 124.182C173.952 129.329 171.809 138.117 164.306 140.328L162.346 140.905L160.735 147.633L159.123 154.36L151.399 159.945C147.151 163.016 140.453 167.995 136.514 171.009C132.576 174.023 129.316 176.504 129.271 176.523C128.954 176.656 126.686 194.265 126.427 198.603L126.105 203.978L130.116 202.51C136.413 200.206 144.444 196.188 149.274 192.925C154.635 189.304 164.132 179.954 167.632 174.852C173.186 166.756 177.437 156.234 179.072 146.534C180.306 139.21 180.31 117.68 179.079 107.701C176.311 85.2786 169.765 61.4173 161.335 43.0202C159.774 39.6139 158.712 38.1764 158.712 39.4705ZM151.231 98.8557C149.431 99.6504 148.687 100.872 148.687 103.038C148.687 105.112 149.734 106.547 151.723 107.203C154.722 108.191 157.497 106.122 157.497 102.899C157.497 99.5837 154.282 97.5092 151.231 98.8557ZM159.093 128.213C157.803 129.5 157.669 129.892 157.907 131.667C158.377 135.164 161.304 136.718 164.406 135.116C165.983 134.302 166.35 133.539 166.35 131.075C166.35 127.067 161.971 125.34 159.093 128.213Z" fill="url(#paint0_linear_3_20)"/>
<path d="M149.723 48.7812C153.752 45.3768 158.712 40.239 158.712 39.4705C158.712 38.1764 159.774 39.6139 161.335 43.0202C169.765 61.4173 176.311 85.2786 179.079 107.701C180.31 117.68 180.306 139.21 179.072 146.534C177.437 156.234 173.186 166.756 167.632 174.852C164.132 179.954 154.635 189.304 149.274 192.925C144.444 196.188 136.413 200.206 130.116 202.51L126.105 203.978L126.427 198.603C126.686 194.265 128.954 176.656 129.271 176.523C129.316 176.504 132.576 174.023 136.514 171.009C140.453 167.995 147.151 163.016 151.399 159.945L159.123 154.36L160.735 147.633L162.346 140.905L164.306 140.328C171.809 138.117 173.952 129.329 168.244 124.182C166.041 122.196 164.753 121.799 161.517 122.109C156.918 122.55 152.97 126.794 152.994 131.269C153.008 133.693 154.39 136.779 156.045 138.078L157.316 139.076L155.848 145.42C155.04 148.909 154.226 151.891 154.04 152.046C153.853 152.202 150.585 154.55 146.778 157.266C142.971 159.982 136.706 164.628 132.855 167.591C129.005 170.554 125.518 172.978 125.107 172.978C124.696 172.978 124.244 173.46 124.103 174.05C123.357 177.18 121.391 192.264 120.911 198.554L120.359 205.787L117.695 206.729C116.231 207.248 114.514 207.825 113.881 208.011L112.729 208.351L113.04 199.598C113.362 190.509 114.566 178.769 116.184 168.928C116.973 164.13 117.301 163.078 118.226 162.386C124.005 158.064 139.629 146.552 142.045 144.835L145.107 142.66L146.69 135.068C147.562 130.892 149.07 124.152 150.043 120.09L151.811 112.704L154.543 112.41C157.668 112.074 159.897 110.766 161.619 108.256C162.555 106.893 162.77 105.981 162.77 103.37C162.77 100.572 162.586 99.8996 161.338 98.1305C156.895 91.8348 147.58 92.7173 144.652 99.7119C143.39 102.728 143.955 106.545 146.029 109.006L147.154 110.34L145.112 118.533C143.988 123.039 142.464 129.667 141.725 133.262C140.918 137.183 140.084 140.044 139.641 140.414C139.234 140.753 134.708 144.091 129.583 147.832C114.782 158.636 112.512 160.486 111.979 162.18C111.247 164.509 109.178 177.701 108.364 185.228C107.962 188.952 107.514 196.123 107.369 201.163L107.105 210.326L103.669 211.662C101.78 212.397 100.111 212.999 99.9609 213C99.3785 213.004 98.471 205.265 98.2171 198.128C97.9287 190.014 98.5331 180.97 100.058 170.596C102.596 153.327 106.394 145.439 116.361 136.737C121.452 132.292 130.568 125.337 132.784 124.207C138.109 121.493 130.438 123.19 124.437 126.053C119.95 128.194 111.535 133.374 110.477 134.646C109.335 136.02 109.134 135.286 109.982 132.835C111.623 128.091 115.339 119.365 117.165 115.971C121.194 108.48 132.395 92.4714 141.371 81.3763C144.073 78.0352 146.112 75.3012 145.9 75.3012C144.816 75.3012 134.807 82.8047 128.454 88.3795C116.324 99.0243 104.288 116.839 98.2615 133.068C97.5082 135.097 96.7735 136.758 96.6288 136.761C96.4842 136.764 95.918 135.846 95.3709 134.722C94.8234 133.597 93.2815 131.316 91.9443 129.653C89.2782 126.337 84.2103 120.912 83.9903 121.138C83.9144 121.217 85.4014 125.14 87.2956 129.857C89.1894 134.574 91.3557 140.169 92.1095 142.289L93.4801 146.144L92.1864 151.97C89.619 163.527 88.3163 178.309 88.606 192.587L88.7765 200.999L86.3939 198.781C77.6665 190.658 69.6007 178.701 66.2576 168.928C61.9646 156.378 61.9116 141.004 66.1173 128.19C68.7452 120.183 74.3382 110.606 81.0449 102.631C88.986 93.188 99.4487 84.5744 118.613 71.7029C130.33 63.8325 142.678 54.7348 149.723 48.7812Z" fill="url(#paint1_linear_3_20)"/>
<path d="M148.687 103.038C148.687 100.872 149.431 99.6504 151.231 98.8557C154.282 97.5092 157.497 99.5837 157.497 102.899C157.497 106.122 154.722 108.191 151.723 107.203C149.734 106.547 148.687 105.112 148.687 103.038Z" fill="url(#paint2_linear_3_20)"/>
<path d="M157.907 131.667C157.669 129.892 157.803 129.5 159.093 128.213C161.971 125.34 166.35 127.067 166.35 131.075C166.35 133.539 165.983 134.302 164.406 135.116C161.304 136.718 158.377 135.164 157.907 131.667Z" fill="url(#paint3_linear_3_20)"/>
<path d="M149.723 48.7812C153.752 45.3768 158.712 40.239 158.712 39.4705C158.712 38.1764 159.774 39.6139 161.335 43.0202C169.765 61.4173 176.311 85.2786 179.079 107.701C180.31 117.68 180.306 139.21 179.072 146.534C177.437 156.234 173.186 166.756 167.632 174.852C164.132 179.954 154.635 189.304 149.274 192.925C144.444 196.188 136.413 200.206 130.116 202.51L126.105 203.978L126.427 198.603C126.686 194.265 128.954 176.656 129.271 176.523C129.316 176.504 132.576 174.023 136.514 171.009C140.453 167.995 147.151 163.016 151.399 159.945L159.123 154.36L160.735 147.633L162.346 140.905L164.306 140.328C171.809 138.117 173.952 129.329 168.244 124.182C166.041 122.196 164.753 121.799 161.517 122.109C156.918 122.55 152.97 126.794 152.994 131.269C153.008 133.693 154.39 136.779 156.045 138.078L157.316 139.076L155.848 145.42C155.04 148.909 154.226 151.891 154.04 152.046C153.853 152.202 150.585 154.55 146.778 157.266C142.971 159.982 136.706 164.628 132.855 167.591C129.005 170.554 125.518 172.978 125.107 172.978C124.696 172.978 124.244 173.46 124.103 174.05C123.357 177.18 121.391 192.264 120.911 198.554L120.359 205.787L117.695 206.729C116.231 207.248 114.514 207.825 113.881 208.011L112.729 208.351L113.04 199.598C113.362 190.509 114.566 178.769 116.184 168.928C116.973 164.13 117.301 163.078 118.226 162.386C124.005 158.064 139.629 146.552 142.045 144.835L145.107 142.66L146.69 135.068C147.562 130.892 149.07 124.152 150.043 120.09L151.811 112.704L154.543 112.41C157.668 112.074 159.897 110.766 161.619 108.256C162.555 106.893 162.77 105.981 162.77 103.37C162.77 100.572 162.586 99.8996 161.338 98.1305C156.895 91.8348 147.58 92.7173 144.652 99.7119C143.39 102.728 143.955 106.545 146.029 109.006L147.154 110.34L145.112 118.533C143.988 123.039 142.464 129.667 141.725 133.262C140.918 137.183 140.084 140.044 139.641 140.414C139.234 140.753 134.708 144.091 129.583 147.832C114.782 158.636 112.512 160.486 111.979 162.18C111.247 164.509 109.178 177.701 108.364 185.228C107.962 188.952 107.514 196.123 107.369 201.163L107.105 210.326L103.669 211.662C101.78 212.397 100.111 212.999 99.9609 213C99.3785 213.004 98.471 205.265 98.2171 198.128C97.9287 190.014 98.5331 180.97 100.058 170.596C102.596 153.327 106.394 145.439 116.361 136.737C121.452 132.292 130.568 125.337 132.784 124.207C138.109 121.493 130.438 123.19 124.437 126.053C119.95 128.194 111.535 133.374 110.477 134.646C109.335 136.02 109.134 135.286 109.982 132.835C111.623 128.091 115.339 119.365 117.165 115.971C121.194 108.48 132.395 92.4714 141.371 81.3763C144.073 78.0352 146.112 75.3012 145.9 75.3012C144.816 75.3012 134.807 82.8047 128.454 88.3795C116.324 99.0243 104.288 116.839 98.2615 133.068C97.5082 135.097 96.7735 136.758 96.6288 136.761C96.4842 136.764 95.918 135.846 95.3709 134.722C94.8234 133.597 93.2815 131.316 91.9443 129.653C89.2782 126.337 84.2103 120.912 83.9903 121.138C83.9144 121.217 85.4014 125.14 87.2956 129.857C89.1894 134.574 91.3557 140.169 92.1095 142.289L93.4801 146.144L92.1864 151.97C89.619 163.527 88.3163 178.309 88.606 192.587L88.7765 200.999L86.3939 198.781C77.6665 190.658 69.6007 178.701 66.2576 168.928C61.9646 156.378 61.9116 141.004 66.1173 128.19C68.7452 120.183 74.3382 110.606 81.0449 102.631C88.986 93.188 99.4487 84.5744 118.613 71.7029C130.33 63.8325 142.678 54.7348 149.723 48.7812Z" fill="url(#paint4_linear_3_20)"/>
<path d="M148.687 103.038C148.687 100.872 149.431 99.6504 151.231 98.8557C154.282 97.5092 157.497 99.5837 157.497 102.899C157.497 106.122 154.722 108.191 151.723 107.203C149.734 106.547 148.687 105.112 148.687 103.038Z" fill="url(#paint5_linear_3_20)"/>
<path d="M157.907 131.667C157.669 129.892 157.803 129.5 159.093 128.213C161.971 125.34 166.35 127.067 166.35 131.075C166.35 133.539 165.983 134.302 164.406 135.116C161.304 136.718 158.377 135.164 157.907 131.667Z" fill="url(#paint6_linear_3_20)"/>
<path fill-rule="evenodd" clip-rule="evenodd" d="M126.195 304.286C122.174 305.34 118.684 308.216 117.037 311.834C115.939 314.247 115.749 319.942 116.682 322.457C117.72 325.252 120.061 327.958 122.687 329.396C124.971 330.646 125.691 330.801 129.26 330.801C132.829 330.801 133.549 330.646 135.833 329.396C138.459 327.958 140.801 325.252 141.838 322.457C142.143 321.637 142.403 319.386 142.417 317.454C142.458 311.848 140.12 307.923 135.274 305.464C132.854 304.235 128.528 303.674 126.195 304.286ZM269.073 304.674C265.787 305.792 262.175 309.427 261.071 312.729C259.989 315.963 260.256 321.1 261.644 323.776C265.037 330.321 273.249 332.879 279.975 329.488C284.562 327.176 286.91 323.109 286.924 317.454C286.935 313.345 285.85 310.638 283.073 307.84C279.659 304.402 273.782 303.073 269.073 304.674ZM339.312 304.154C339.065 304.215 338.062 304.398 337.084 304.56C333.168 305.211 330.502 309.365 331.541 313.197C332.238 315.769 334.553 317.59 338.986 319.056C342.954 320.369 344.756 321.752 344.756 323.486C344.756 325.244 343.891 326.291 341.965 326.864C339.475 327.605 337.054 327.065 335.058 325.325L333.396 323.876L331.965 325.231L330.534 326.586L332.468 328.298C334.761 330.327 338.12 331.28 341.553 330.876C346.052 330.347 349 327.5 349 323.683C349 319.698 346.794 317.374 341.322 315.597C335.859 313.822 334 311.362 336.416 309.106C337.905 307.718 341.374 307.72 343.863 309.109L345.693 310.13L346.875 309.028C347.525 308.421 348.057 307.754 348.057 307.545C348.057 306.257 341.344 303.655 339.312 304.154ZM92.2439 305.41C89.0152 307.212 87.8425 311.053 89.4759 314.472C90.3233 316.245 93.1356 318.114 96.4444 319.103C101.053 320.481 102.829 322.18 102.211 324.622C101.887 325.908 99.4279 327.288 97.4625 327.288C95.8771 327.288 93.0116 326.103 91.7488 324.925C90.7736 324.015 90.7633 324.017 89.3845 325.458L88 326.904L89.6504 328.286C91.8638 330.138 95.7258 331.22 98.9474 330.89C103.622 330.41 106.187 328.039 106.494 323.912C106.811 319.657 104.755 317.501 98.4438 315.469C94.8855 314.324 92.9512 312.876 92.9512 311.358C92.9512 307.772 97.7016 306.765 102.043 309.429L103.647 310.414L104.725 309.275C106.153 307.765 105.78 307.048 102.799 305.573C99.4788 303.93 95.0189 303.861 92.2439 305.41ZM154.252 317.454V330.566H162.033H169.813V328.504V326.442L164.154 326.514L158.495 326.586L158.496 315.464V304.342H156.374H154.252V317.454ZM180.278 313.84C180.417 322.965 180.47 323.429 181.628 325.66C185.423 332.976 196.766 332.718 200.274 325.236C201.338 322.967 201.398 322.347 201.402 313.591L201.406 304.342H199.285H197.163V313.254C197.163 323.075 196.851 324.589 194.515 326.111C192.651 327.326 189.082 327.299 187.376 326.057C184.746 324.142 184.432 322.763 184.432 313.122L184.431 304.342H182.282H180.133L180.278 313.84ZM213.195 306.449V308.556L217.085 308.558L220.976 308.559L221.083 319.446L221.19 330.332L223.322 330.475L225.455 330.618V319.587V308.556H229.228H233V306.449V304.342H223.098H213.195V306.449ZM244.789 317.454V330.566H246.911H249.033V317.454V304.342H246.911H244.789V317.454ZM298.073 317.428V330.566H300.185H302.298L302.425 321.168L302.553 311.769L308.919 321.174L315.285 330.58L317.642 330.456L320 330.332L320.137 317.337L320.274 304.342H317.838H315.403L315.603 314.16C315.712 319.56 315.707 323.883 315.59 323.767C315.473 323.651 312.492 319.285 308.965 314.066L302.553 304.576L300.313 304.433L298.073 304.29V317.428ZM125.704 308.969C116.866 312.956 119.534 326.845 129.159 326.954C138.888 327.064 141.748 312.998 132.816 308.969C131.768 308.496 130.168 308.109 129.26 308.109C128.352 308.109 126.752 308.496 125.704 308.969ZM270.016 308.947C265.558 311.052 263.503 316.046 265.146 320.779C267.113 326.444 273.742 328.84 278.417 325.577C281.51 323.418 282.577 321.172 282.407 317.178C282.247 313.423 281.183 311.382 278.398 309.487C276.208 307.996 272.531 307.759 270.016 308.947Z" fill="url(#paint7_linear_3_20)"/>
<defs>
<linearGradient id="paint0_linear_3_20" x1="158.33" y1="39" x2="101.88" y2="213.027" gradientUnits="userSpaceOnUse">
<stop stop-color="#97D751"/>
<stop offset="0.5" stop-color="#7AC94A"/>
<stop offset="1" stop-color="#57B84B"/>
</linearGradient>
<linearGradient id="paint1_linear_3_20" x1="158.33" y1="39" x2="101.88" y2="213.027" gradientUnits="userSpaceOnUse">
<stop stop-color="#97D751"/>
<stop offset="0.5" stop-color="#7AC94A"/>
<stop offset="1" stop-color="#57B84B"/>
</linearGradient>
<linearGradient id="paint2_linear_3_20" x1="158.33" y1="39" x2="101.88" y2="213.027" gradientUnits="userSpaceOnUse">
<stop stop-color="#97D751"/>
<stop offset="0.5" stop-color="#7AC94A"/>
<stop offset="1" stop-color="#57B84B"/>
</linearGradient>
<linearGradient id="paint3_linear_3_20" x1="158.33" y1="39" x2="101.88" y2="213.027" gradientUnits="userSpaceOnUse">
<stop stop-color="#97D751"/>
<stop offset="0.5" stop-color="#7AC94A"/>
<stop offset="1" stop-color="#57B84B"/>
</linearGradient>
<linearGradient id="paint4_linear_3_20" x1="158.33" y1="39" x2="101.88" y2="213.027" gradientUnits="userSpaceOnUse">
<stop stop-color="#97D751"/>
<stop offset="0.5" stop-color="#7AC94A"/>
<stop offset="1" stop-color="#57B84B"/>
</linearGradient>
<linearGradient id="paint5_linear_3_20" x1="158.33" y1="39" x2="101.88" y2="213.027" gradientUnits="userSpaceOnUse">
<stop stop-color="#97D751"/>
<stop offset="0.5" stop-color="#7AC94A"/>
<stop offset="1" stop-color="#57B84B"/>
</linearGradient>
<linearGradient id="paint6_linear_3_20" x1="158.33" y1="39" x2="101.88" y2="213.027" gradientUnits="userSpaceOnUse">
<stop stop-color="#97D751"/>
<stop offset="0.5" stop-color="#7AC94A"/>
<stop offset="1" stop-color="#57B84B"/>
</linearGradient>
<linearGradient id="paint7_linear_3_20" x1="206.5" y1="309.5" x2="206.5" y2="334" gradientUnits="userSpaceOnUse">
<stop stop-color="#95D650"/>
<stop offset="1" stop-color="#5ABA4B"/>
</linearGradient>
</defs>
</svg>
