<svg width="117" height="174" viewBox="0 0 117 174" fill="none" xmlns="http://www.w3.org/2000/svg">
<path fill-rule="evenodd" clip-rule="evenodd" d="M95.7122 0.470487C95.7122 1.23904 90.7518 6.37685 86.7232 9.78124C79.6781 15.7348 67.3298 24.8325 55.6125 32.7029C36.4487 45.5744 25.986 54.188 18.0449 63.6313C11.3382 71.6065 5.74523 81.1826 3.11727 89.1897C-1.08843 102.004 -1.03543 117.378 3.25762 129.928C6.60069 139.701 14.6665 151.658 23.3939 159.781L25.7765 161.999L25.606 153.587C25.3163 139.309 26.619 124.527 29.1864 112.97L30.4801 107.144L29.1095 103.289C28.3557 101.169 26.1894 95.5745 24.2956 90.8574C22.4014 86.1403 20.9144 82.2166 20.9903 82.1384C21.2103 81.9121 26.2782 87.3372 28.9443 90.6535C30.2815 92.3164 31.8234 94.5972 32.3709 95.7217C32.918 96.8462 33.4842 97.7639 33.6288 97.761C33.7735 97.7582 34.5082 96.0967 35.2615 94.0684C41.2883 77.8387 53.324 60.0243 65.4541 49.3795C71.8071 43.8047 81.8162 36.3012 82.9003 36.3012C83.1118 36.3012 81.073 39.0352 78.3705 42.3763C69.3949 53.4714 58.1937 69.48 54.1651 76.9706C52.3391 80.3655 48.6228 89.0906 46.9816 93.8353C46.1342 96.2858 46.3347 97.0201 47.4771 95.6464C48.5349 94.3742 56.9497 89.194 61.4365 87.0532C67.4381 84.1896 75.1091 82.4929 69.7844 85.2074C67.5684 86.3366 58.452 93.2917 53.3607 97.7372C43.3936 106.439 39.5956 114.327 37.0578 131.596C35.5331 141.97 34.9287 151.014 35.2171 159.128C35.471 166.265 36.3785 174.004 36.9609 174C37.1108 173.999 38.7797 173.397 40.6692 172.662L44.1049 171.326L44.3689 162.163C44.514 157.123 44.9618 149.952 45.3642 146.228C46.1777 138.701 48.2466 125.509 48.9794 123.18C49.5121 121.486 51.7816 119.636 66.5827 108.832C71.7078 105.091 76.2338 101.753 76.641 101.414C77.0845 101.044 77.9185 98.1832 78.7248 94.2618C79.4642 90.6668 80.9885 84.0386 82.1117 79.5326L84.1539 71.3396L83.0293 70.0055C80.955 67.5455 80.3898 63.728 81.6525 60.7119C84.5802 53.7173 93.8948 52.8348 98.3378 59.1305C99.5861 60.8996 99.7699 61.5719 99.7699 64.3698C99.7699 66.9809 99.5551 67.8928 98.6194 69.2555C96.8966 71.7656 94.6682 73.0735 91.5428 73.4104L88.8108 73.7044L87.0426 81.0897C86.0701 85.1516 84.5616 91.8918 83.6904 96.0676L82.107 103.66L79.0451 105.835C76.6291 107.552 61.0055 119.064 55.2263 123.386C54.3012 124.078 53.9727 125.13 53.1836 129.928C51.5658 139.769 50.3623 151.509 50.0396 160.598L49.7293 169.351L50.8808 169.011C51.5138 168.825 53.2309 168.248 54.6955 167.729L57.3588 166.787L57.9111 159.554C58.3913 153.264 60.3567 138.18 61.1033 135.05C61.2442 134.46 61.6958 133.978 62.1068 133.978C62.5178 133.978 66.0046 131.554 69.8551 128.591C73.7056 125.628 79.9707 120.982 83.7778 118.266C87.5849 115.55 90.8525 113.202 91.0396 113.046C91.2263 112.891 92.0402 109.909 92.8479 106.42L94.3163 100.076L93.0451 99.078C91.39 97.7786 90.0076 94.6925 89.9942 92.2687C89.9698 87.7937 93.9182 83.5502 98.5168 83.109C101.753 82.7988 103.041 83.1957 105.244 85.1817C110.952 90.329 108.809 99.1171 101.306 101.328L99.3465 101.905L97.7348 108.633L96.1227 115.36L88.3988 120.945C84.1506 124.016 77.4525 128.995 73.5142 132.009C69.5758 135.023 66.3163 137.504 66.2709 137.523C65.9544 137.656 63.6859 155.265 63.4267 159.603L63.1055 164.978L67.1164 163.51C73.4134 161.206 81.4444 157.188 86.274 153.925C91.6354 150.304 101.132 140.954 104.632 135.852C110.186 127.756 114.437 117.234 116.072 107.534C117.306 100.21 117.31 78.6802 116.079 68.7014C113.311 46.2786 106.765 22.4173 98.3354 4.02021C96.7744 0.613903 95.7122 -0.823614 95.7122 0.470487ZM88.2312 59.8557C86.4306 60.6504 85.6873 61.8721 85.6873 64.0377C85.6873 66.1118 86.7337 67.5474 88.7229 68.2025C91.7223 69.1907 94.4973 67.1219 94.4973 63.8986C94.4973 60.5837 91.2822 58.5092 88.2312 59.8557ZM96.0932 89.2126C94.8033 90.5 94.6687 90.8922 94.9069 92.6666C95.3771 96.1643 98.3039 97.7176 101.406 96.1162C102.983 95.3024 103.35 94.5391 103.35 92.0748C103.35 88.0672 98.9708 86.3404 96.0932 89.2126Z" fill="url(#paint0_linear_4_22)"/>
<path d="M86.7232 9.78124C90.7518 6.37685 95.7122 1.23904 95.7122 0.470487C95.7122 -0.823614 96.7744 0.613903 98.3354 4.02021C106.765 22.4173 113.311 46.2786 116.079 68.7014C117.31 78.6802 117.306 100.21 116.072 107.534C114.437 117.234 110.186 127.756 104.632 135.852C101.132 140.954 91.6354 150.304 86.274 153.925C81.4444 157.188 73.4134 161.206 67.1164 163.51L63.1055 164.978L63.4267 159.603C63.6859 155.265 65.9544 137.656 66.2709 137.523C66.3163 137.504 69.5758 135.023 73.5142 132.009C77.4525 128.995 84.1506 124.016 88.3988 120.945L96.1227 115.36L97.7348 108.633L99.3465 101.905L101.306 101.328C108.809 99.1171 110.952 90.329 105.244 85.1817C103.041 83.1957 101.753 82.7988 98.5168 83.109C93.9182 83.5502 89.9698 87.7937 89.9942 92.2687C90.0076 94.6925 91.39 97.7786 93.0451 99.078L94.3163 100.076L92.8479 106.42C92.0402 109.909 91.2263 112.891 91.0396 113.046C90.8525 113.202 87.5849 115.55 83.7778 118.266C79.9707 120.982 73.7056 125.628 69.8551 128.591C66.0046 131.554 62.5178 133.978 62.1068 133.978C61.6958 133.978 61.2442 134.46 61.1033 135.05C60.3567 138.18 58.3913 153.264 57.9111 159.554L57.3588 166.787L54.6955 167.729C53.2309 168.248 51.5138 168.825 50.8808 169.011L49.7293 169.351L50.0396 160.598C50.3623 151.509 51.5658 139.769 53.1836 129.928C53.9727 125.13 54.3012 124.078 55.2263 123.386C61.0055 119.064 76.6291 107.552 79.0451 105.835L82.107 103.66L83.6904 96.0676C84.5616 91.8918 86.0701 85.1516 87.0426 81.0897L88.8108 73.7044L91.5428 73.4104C94.6682 73.0735 96.8966 71.7656 98.6194 69.2555C99.5551 67.8928 99.7699 66.9809 99.7699 64.3698C99.7699 61.5719 99.5861 60.8996 98.3378 59.1305C93.8948 52.8348 84.5802 53.7173 81.6525 60.7119C80.3898 63.728 80.955 67.5455 83.0293 70.0055L84.1539 71.3396L82.1117 79.5326C80.9885 84.0386 79.4642 90.6668 78.7248 94.2618C77.9185 98.1832 77.0845 101.044 76.641 101.414C76.2338 101.753 71.7078 105.091 66.5827 108.832C51.7816 119.636 49.5121 121.486 48.9794 123.18C48.2466 125.509 46.1777 138.701 45.3642 146.228C44.9618 149.952 44.514 157.123 44.3689 162.163L44.1049 171.326L40.6692 172.662C38.7797 173.397 37.1108 173.999 36.9609 174C36.3785 174.004 35.471 166.265 35.2171 159.128C34.9287 151.014 35.5331 141.97 37.0578 131.596C39.5956 114.327 43.3936 106.439 53.3607 97.7372C58.452 93.2917 67.5684 86.3366 69.7844 85.2074C75.1091 82.4929 67.4381 84.1896 61.4365 87.0532C56.9497 89.194 48.5349 94.3742 47.4771 95.6464C46.3347 97.0201 46.1342 96.2858 46.9816 93.8353C48.6228 89.0906 52.3391 80.3655 54.1651 76.9706C58.1937 69.48 69.3949 53.4714 78.3705 42.3763C81.073 39.0352 83.1118 36.3012 82.9003 36.3012C81.8162 36.3012 71.8071 43.8047 65.4541 49.3795C53.324 60.0243 41.2883 77.8387 35.2615 94.0684C34.5082 96.0967 33.7735 97.7582 33.6288 97.761C33.4842 97.7639 32.918 96.8462 32.3709 95.7217C31.8234 94.5972 30.2815 92.3164 28.9443 90.6535C26.2782 87.3372 21.2103 81.9121 20.9903 82.1384C20.9144 82.2166 22.4014 86.1403 24.2956 90.8574C26.1894 95.5745 28.3557 101.169 29.1095 103.289L30.4801 107.144L29.1864 112.97C26.619 124.527 25.3163 139.309 25.606 153.587L25.7765 161.999L23.3939 159.781C14.6665 151.658 6.60069 139.701 3.25762 129.928C-1.03543 117.378 -1.08843 102.004 3.11727 89.1897C5.74523 81.1826 11.3382 71.6065 18.0449 63.6313C25.986 54.188 36.4487 45.5744 55.6125 32.7029C67.3298 24.8325 79.6781 15.7348 86.7232 9.78124Z" fill="url(#paint1_linear_4_22)"/>
<path d="M85.6873 64.0377C85.6873 61.8721 86.4306 60.6504 88.2312 59.8557C91.2822 58.5092 94.4973 60.5837 94.4973 63.8986C94.4973 67.1219 91.7223 69.1907 88.7229 68.2025C86.7337 67.5474 85.6873 66.1118 85.6873 64.0377Z" fill="url(#paint2_linear_4_22)"/>
<path d="M94.9069 92.6666C94.6687 90.8922 94.8033 90.5 96.0932 89.2126C98.9708 86.3404 103.35 88.0672 103.35 92.0748C103.35 94.5391 102.983 95.3024 101.406 96.1162C98.3039 97.7176 95.3771 96.1643 94.9069 92.6666Z" fill="url(#paint3_linear_4_22)"/>
<path d="M86.7232 9.78124C90.7518 6.37685 95.7122 1.23904 95.7122 0.470487C95.7122 -0.823614 96.7744 0.613903 98.3354 4.02021C106.765 22.4173 113.311 46.2786 116.079 68.7014C117.31 78.6802 117.306 100.21 116.072 107.534C114.437 117.234 110.186 127.756 104.632 135.852C101.132 140.954 91.6354 150.304 86.274 153.925C81.4444 157.188 73.4134 161.206 67.1164 163.51L63.1055 164.978L63.4267 159.603C63.6859 155.265 65.9544 137.656 66.2709 137.523C66.3163 137.504 69.5758 135.023 73.5142 132.009C77.4525 128.995 84.1506 124.016 88.3988 120.945L96.1227 115.36L97.7348 108.633L99.3465 101.905L101.306 101.328C108.809 99.1171 110.952 90.329 105.244 85.1817C103.041 83.1957 101.753 82.7988 98.5168 83.109C93.9182 83.5502 89.9698 87.7937 89.9942 92.2687C90.0076 94.6925 91.39 97.7786 93.0451 99.078L94.3163 100.076L92.8479 106.42C92.0402 109.909 91.2263 112.891 91.0396 113.046C90.8525 113.202 87.5849 115.55 83.7778 118.266C79.9707 120.982 73.7056 125.628 69.8551 128.591C66.0046 131.554 62.5178 133.978 62.1068 133.978C61.6958 133.978 61.2442 134.46 61.1033 135.05C60.3567 138.18 58.3913 153.264 57.9111 159.554L57.3588 166.787L54.6955 167.729C53.2309 168.248 51.5138 168.825 50.8808 169.011L49.7293 169.351L50.0396 160.598C50.3623 151.509 51.5658 139.769 53.1836 129.928C53.9727 125.13 54.3012 124.078 55.2263 123.386C61.0055 119.064 76.6291 107.552 79.0451 105.835L82.107 103.66L83.6904 96.0676C84.5616 91.8918 86.0701 85.1516 87.0426 81.0897L88.8108 73.7044L91.5428 73.4104C94.6682 73.0735 96.8966 71.7656 98.6194 69.2555C99.5551 67.8928 99.7699 66.9809 99.7699 64.3698C99.7699 61.5719 99.5861 60.8996 98.3378 59.1305C93.8948 52.8348 84.5802 53.7173 81.6525 60.7119C80.3898 63.728 80.955 67.5455 83.0293 70.0055L84.1539 71.3396L82.1117 79.5326C80.9885 84.0386 79.4642 90.6668 78.7248 94.2618C77.9185 98.1832 77.0845 101.044 76.641 101.414C76.2338 101.753 71.7078 105.091 66.5827 108.832C51.7816 119.636 49.5121 121.486 48.9794 123.18C48.2466 125.509 46.1777 138.701 45.3642 146.228C44.9618 149.952 44.514 157.123 44.3689 162.163L44.1049 171.326L40.6692 172.662C38.7797 173.397 37.1108 173.999 36.9609 174C36.3785 174.004 35.471 166.265 35.2171 159.128C34.9287 151.014 35.5331 141.97 37.0578 131.596C39.5956 114.327 43.3936 106.439 53.3607 97.7372C58.452 93.2917 67.5684 86.3366 69.7844 85.2074C75.1091 82.4929 67.4381 84.1896 61.4365 87.0532C56.9497 89.194 48.5349 94.3742 47.4771 95.6464C46.3347 97.0201 46.1342 96.2858 46.9816 93.8353C48.6228 89.0906 52.3391 80.3655 54.1651 76.9706C58.1937 69.48 69.3949 53.4714 78.3705 42.3763C81.073 39.0352 83.1118 36.3012 82.9003 36.3012C81.8162 36.3012 71.8071 43.8047 65.4541 49.3795C53.324 60.0243 41.2883 77.8387 35.2615 94.0684C34.5082 96.0967 33.7735 97.7582 33.6288 97.761C33.4842 97.7639 32.918 96.8462 32.3709 95.7217C31.8234 94.5972 30.2815 92.3164 28.9443 90.6535C26.2782 87.3372 21.2103 81.9121 20.9903 82.1384C20.9144 82.2166 22.4014 86.1403 24.2956 90.8574C26.1894 95.5745 28.3557 101.169 29.1095 103.289L30.4801 107.144L29.1864 112.97C26.619 124.527 25.3163 139.309 25.606 153.587L25.7765 161.999L23.3939 159.781C14.6665 151.658 6.60069 139.701 3.25762 129.928C-1.03543 117.378 -1.08843 102.004 3.11727 89.1897C5.74523 81.1826 11.3382 71.6065 18.0449 63.6313C25.986 54.188 36.4487 45.5744 55.6125 32.7029C67.3298 24.8325 79.6781 15.7348 86.7232 9.78124Z" fill="url(#paint4_linear_4_22)"/>
<path d="M85.6873 64.0377C85.6873 61.8721 86.4306 60.6504 88.2312 59.8557C91.2822 58.5092 94.4973 60.5837 94.4973 63.8986C94.4973 67.1219 91.7223 69.1907 88.7229 68.2025C86.7337 67.5474 85.6873 66.1118 85.6873 64.0377Z" fill="url(#paint5_linear_4_22)"/>
<path d="M94.9069 92.6666C94.6687 90.8922 94.8033 90.5 96.0932 89.2126C98.9708 86.3404 103.35 88.0672 103.35 92.0748C103.35 94.5391 102.983 95.3024 101.406 96.1162C98.3039 97.7176 95.3771 96.1643 94.9069 92.6666Z" fill="url(#paint6_linear_4_22)"/>
<defs>
<linearGradient id="paint0_linear_4_22" x1="95.3298" y1="2.38982e-06" x2="38.88" y2="174.027" gradientUnits="userSpaceOnUse">
<stop stop-color="#97D751"/>
<stop offset="0.5" stop-color="#7AC94A"/>
<stop offset="1" stop-color="#57B84B"/>
</linearGradient>
<linearGradient id="paint1_linear_4_22" x1="95.3298" y1="2.38982e-06" x2="38.88" y2="174.027" gradientUnits="userSpaceOnUse">
<stop stop-color="#97D751"/>
<stop offset="0.5" stop-color="#7AC94A"/>
<stop offset="1" stop-color="#57B84B"/>
</linearGradient>
<linearGradient id="paint2_linear_4_22" x1="95.3298" y1="2.38982e-06" x2="38.88" y2="174.027" gradientUnits="userSpaceOnUse">
<stop stop-color="#97D751"/>
<stop offset="0.5" stop-color="#7AC94A"/>
<stop offset="1" stop-color="#57B84B"/>
</linearGradient>
<linearGradient id="paint3_linear_4_22" x1="95.3298" y1="2.38982e-06" x2="38.88" y2="174.027" gradientUnits="userSpaceOnUse">
<stop stop-color="#97D751"/>
<stop offset="0.5" stop-color="#7AC94A"/>
<stop offset="1" stop-color="#57B84B"/>
</linearGradient>
<linearGradient id="paint4_linear_4_22" x1="95.3298" y1="2.38982e-06" x2="38.88" y2="174.027" gradientUnits="userSpaceOnUse">
<stop stop-color="#97D751"/>
<stop offset="0.5" stop-color="#7AC94A"/>
<stop offset="1" stop-color="#57B84B"/>
</linearGradient>
<linearGradient id="paint5_linear_4_22" x1="95.3298" y1="2.38982e-06" x2="38.88" y2="174.027" gradientUnits="userSpaceOnUse">
<stop stop-color="#97D751"/>
<stop offset="0.5" stop-color="#7AC94A"/>
<stop offset="1" stop-color="#57B84B"/>
</linearGradient>
<linearGradient id="paint6_linear_4_22" x1="95.3298" y1="2.38982e-06" x2="38.88" y2="174.027" gradientUnits="userSpaceOnUse">
<stop stop-color="#97D751"/>
<stop offset="0.5" stop-color="#7AC94A"/>
<stop offset="1" stop-color="#57B84B"/>
</linearGradient>
</defs>
</svg>
